<svg width="24" height="24" viewBox="0 0 24 24" fill="none" xmlns="http://www.w3.org/2000/svg">
<path d="M1.91998 0.23291C1.53807 0.23291 1.1718 0.380075 0.901747 0.642031C0.631694 0.903986 0.47998 1.25927 0.47998 1.62974C0.47998 2.0002 0.631694 2.35548 0.901747 2.61744C1.1718 2.8794 1.53807 3.02656 1.91998 3.02656H3.67678L4.11598 4.73348C4.12034 4.75314 4.12514 4.7727 4.13038 4.79215L6.0859 12.3769L4.79998 13.6229C2.98558 15.3829 4.27006 18.3916 6.83614 18.3916H19.2C19.5819 18.3916 19.9482 18.2445 20.2182 17.9825C20.4883 17.7206 20.64 17.3653 20.64 16.9948C20.64 16.6244 20.4883 16.2691 20.2182 16.0071C19.9482 15.7452 19.5819 15.598 19.2 15.598H6.83614L8.27614 14.2012H17.76C18.0273 14.201 18.2894 14.1287 18.5167 13.9923C18.7441 13.8558 18.9278 13.6607 19.0473 13.4287L23.3673 5.04777C23.477 4.83486 23.5288 4.5983 23.5178 4.36054C23.5067 4.12277 23.4332 3.89169 23.3043 3.68921C23.1753 3.48673 22.9951 3.31957 22.7809 3.2036C22.5666 3.08763 22.3253 3.02669 22.08 3.02656H6.64318L6.19678 1.29031C6.11877 0.988248 5.93895 0.720135 5.68588 0.528556C5.43281 0.336977 5.121 0.232918 4.79998 0.23291H1.91998Z" fill="#1D1D1D"/>
<path d="M20.6398 21.8838C20.6398 22.4395 20.4123 22.9724 20.0072 23.3654C19.6021 23.7583 19.0527 23.979 18.4798 23.979C17.907 23.979 17.3576 23.7583 16.9525 23.3654C16.5474 22.9724 16.3198 22.4395 16.3198 21.8838C16.3198 21.3281 16.5474 20.7952 16.9525 20.4023C17.3576 20.0093 17.907 19.7886 18.4798 19.7886C19.0527 19.7886 19.6021 20.0093 20.0072 20.4023C20.4123 20.7952 20.6398 21.3281 20.6398 21.8838Z" fill="#1D1D1D"/>
<path d="M6.95981 23.979C7.53267 23.979 8.08208 23.7583 8.48716 23.3654C8.89223 22.9724 9.11981 22.4395 9.11981 21.8838C9.11981 21.3281 8.89223 20.7952 8.48716 20.4023C8.08208 20.0093 7.53267 19.7886 6.95981 19.7886C6.38694 19.7886 5.83753 20.0093 5.43245 20.4023C5.02738 20.7952 4.7998 21.3281 4.7998 21.8838C4.7998 22.4395 5.02738 22.9724 5.43245 23.3654C5.83753 23.7583 6.38694 23.979 6.95981 23.979Z" fill="#1D1D1D"/>
</svg>
